# MagicaVoxel @ Ephtracy

# group
o 

# material
mtllib mob-1.mtl
usemtl palette

# normals
vn -1 0 0
vn 1 0 0
vn 0 0 1
vn 0 0 -1
vn 0 -1 0
vn 0 1 0

# texcoords
vt 0.306641 0.5
vt 0.341797 0.5
vt 0.560547 0.5
vt 0.759766 0.5

# verts
v -0.9 0 0.5
v -0.9 0 -0.2
v -0.9 0.3 0.5
v -0.9 0.3 -0.2
v -0.9 3.2 0.5
v -0.9 3.2 -0.2
v -0.3 0 0.5
v -0.3 0 -0.2
v -0.3 0.3 0.5
v -0.3 0.3 -0.2
v -0.3 3.2 0.5
v -0.3 3.2 -0.2
v -0.9 0 0.5
v -0.9 0.3 0.5
v -0.9 3.2 0.5
v -0.8 1.6 0.5
v -0.8 2 0.5
v -0.7 1.5 0.5
v -0.7 1.6 0.5
v -0.7 2 0.5
v -0.7 2.1 0.5
v -0.5 1.5 0.5
v -0.5 1.7 0.5
v -0.5 1.9 0.5
v -0.5 2.1 0.5
v -0.4 1.7 0.5
v -0.4 1.9 0.5
v -0.3 0 0.5
v -0.3 0.3 0.5
v -0.3 3.2 0.5
v -0.9 0 -0.2
v -0.9 0.3 -0.2
v -0.9 3.2 -0.2
v -0.3 0 -0.2
v -0.3 0.3 -0.2
v -0.3 3.2 -0.2
v -0.9 0 0.5
v -0.3 0 0.5
v -0.9 0 -0.2
v -0.3 0 -0.2
v -0.9 3.2 0.5
v -0.3 3.2 0.5
v -0.8 3.2 0.4
v -0.4 3.2 0.4
v -0.8 3.2 -0.1
v -0.4 3.2 -0.1
v -0.9 3.2 -0.2
v -0.3 3.2 -0.2

# faces
f 3/3/1 2/3/1 1/3/1
f 4/3/1 2/3/1 3/3/1
f 5/4/1 4/4/1 3/4/1
f 6/4/1 4/4/1 5/4/1
f 7/3/2 8/3/2 9/3/2
f 9/3/2 8/3/2 10/3/2
f 9/4/2 10/4/2 11/4/2
f 11/4/2 10/4/2 12/4/2
f 16/4/3 15/4/3 14/4/3
f 17/4/3 15/4/3 16/4/3
f 18/4/3 16/4/3 14/4/3
f 19/2/3 17/2/3 16/2/3
f 19/4/3 16/4/3 18/4/3
f 20/4/3 15/4/3 17/4/3
f 20/2/3 17/2/3 19/2/3
f 21/4/3 15/4/3 20/4/3
f 22/2/3 19/2/3 18/2/3
f 22/4/3 18/4/3 14/4/3
f 22/2/3 21/2/3 20/2/3
f 22/2/3 20/2/3 19/2/3
f 23/2/3 21/2/3 22/2/3
f 24/2/3 21/2/3 23/2/3
f 25/4/3 15/4/3 21/4/3
f 25/2/3 21/2/3 24/2/3
f 26/2/3 24/2/3 23/2/3
f 26/4/3 23/4/3 22/4/3
f 27/4/3 25/4/3 24/4/3
f 27/2/3 24/2/3 26/2/3
f 28/3/3 14/3/3 13/3/3
f 29/4/3 22/4/3 14/4/3
f 29/3/3 14/3/3 28/3/3
f 29/4/3 26/4/3 22/4/3
f 29/4/3 27/4/3 26/4/3
f 30/4/3 25/4/3 27/4/3
f 30/4/3 27/4/3 29/4/3
f 30/4/3 15/4/3 25/4/3
f 31/3/4 32/3/4 34/3/4
f 32/4/4 33/4/4 35/4/4
f 34/3/4 32/3/4 35/3/4
f 35/4/4 33/4/4 36/4/4
f 39/3/5 38/3/5 37/3/5
f 40/3/5 38/3/5 39/3/5
f 41/4/6 42/4/6 43/4/6
f 43/4/6 42/4/6 44/4/6
f 41/4/6 43/4/6 45/4/6
f 43/1/6 44/1/6 45/1/6
f 44/4/6 42/4/6 46/4/6
f 45/1/6 44/1/6 46/1/6
f 41/4/6 45/4/6 47/4/6
f 45/4/6 46/4/6 47/4/6
f 46/4/6 42/4/6 48/4/6
f 47/4/6 46/4/6 48/4/6
