# MagicaVoxel @ Ephtracy

# group
o 

# material
mtllib me-0.mtl
usemtl palette

# normals
vn -1 0 0
vn 1 0 0
vn 0 0 1
vn 0 0 -1
vn 0 -1 0
vn 0 1 0

# texcoords
vt 0.0253906 0.5
vt 0.990234 0.5
vt 0.994141 0.5

# verts
v -7.3 2.6 -0.2
v -7.3 2.6 -0.4
v -7.3 2.8 -0.2
v -7.3 2.8 -0.3
v -7.3 2.9 -0.2
v -7.3 2.9 -0.3
v -7.3 2.9 -0.4
v -6.1 2.6 -0.2
v -6.1 2.6 -0.4
v -6.1 2.7 -0.2
v -6.1 2.7 -0.4
v -6.3 2.6 -0.3
v -6.3 2.6 -0.4
v -6.3 2.7 -0.3
v -6.3 2.7 -0.4
v -6.2 2.6 -0.2
v -6.2 2.6 -0.3
v -6.2 2.7 -0.2
v -6.2 2.7 -0.3
v -6 2.6 -0.2
v -6 2.6 -0.4
v -6 2.9 -0.2
v -6 2.9 -0.4
v -7.3 2.6 -0.2
v -7.3 2.8 -0.2
v -7.3 2.9 -0.2
v -6.3 2.6 -0.2
v -6.3 2.8 -0.2
v -6.3 2.9 -0.2
v -6.2 2.6 -0.2
v -6.2 2.7 -0.2
v -6.1 2.6 -0.2
v -6.1 2.7 -0.2
v -6 2.6 -0.2
v -6 2.9 -0.2
v -6.3 2.6 -0.3
v -6.3 2.7 -0.3
v -6.2 2.6 -0.3
v -6.2 2.7 -0.3
v -7.3 2.6 -0.4
v -7.3 2.9 -0.4
v -6.3 2.6 -0.4
v -6.3 2.7 -0.4
v -6.3 2.9 -0.4
v -6.1 2.6 -0.4
v -6.1 2.7 -0.4
v -6 2.6 -0.4
v -6 2.9 -0.4
v -7.3 2.6 -0.2
v -6.3 2.6 -0.2
v -6.2 2.6 -0.2
v -6.1 2.6 -0.2
v -6 2.6 -0.2
v -6.3 2.6 -0.3
v -6.2 2.6 -0.3
v -7.3 2.6 -0.4
v -6.3 2.6 -0.4
v -6.1 2.6 -0.4
v -6 2.6 -0.4
v -6.2 2.7 -0.2
v -6.1 2.7 -0.2
v -6.3 2.7 -0.3
v -6.2 2.7 -0.3
v -6.3 2.7 -0.4
v -6.1 2.7 -0.4
v -7.3 2.9 -0.2
v -6.3 2.9 -0.2
v -6 2.9 -0.2
v -7.3 2.9 -0.3
v -6.3 2.9 -0.3
v -7.3 2.9 -0.4
v -6.3 2.9 -0.4
v -6 2.9 -0.4

# faces
f 3/3/1 2/3/1 1/3/1
f 4/3/1 2/3/1 3/3/1
f 5/2/1 4/2/1 3/2/1
f 6/3/1 2/3/1 4/3/1
f 6/2/1 4/2/1 5/2/1
f 7/3/1 2/3/1 6/3/1
f 10/1/1 9/1/1 8/1/1
f 11/1/1 9/1/1 10/1/1
f 12/3/2 13/3/2 14/3/2
f 14/3/2 13/3/2 15/3/2
f 16/1/2 17/1/2 18/1/2
f 18/1/2 17/1/2 19/1/2
f 20/1/2 21/1/2 22/1/2
f 22/1/2 21/1/2 23/1/2
f 27/3/3 25/3/3 24/3/3
f 28/2/3 26/2/3 25/2/3
f 28/3/3 25/3/3 27/3/3
f 29/2/3 26/2/3 28/2/3
f 30/1/3 28/1/3 27/1/3
f 30/1/3 29/1/3 28/1/3
f 31/1/3 29/1/3 30/1/3
f 33/1/3 29/1/3 31/1/3
f 34/1/3 33/1/3 32/1/3
f 35/1/3 29/1/3 33/1/3
f 35/1/3 33/1/3 34/1/3
f 36/1/4 37/1/4 38/1/4
f 38/1/4 37/1/4 39/1/4
f 40/3/4 41/3/4 42/3/4
f 42/3/4 41/3/4 43/3/4
f 43/3/4 41/3/4 44/3/4
f 43/1/4 44/1/4 46/1/4
f 45/1/4 46/1/4 47/1/4
f 46/1/4 44/1/4 48/1/4
f 47/1/4 46/1/4 48/1/4
f 54/3/5 50/3/5 49/3/5
f 54/1/5 51/1/5 50/1/5
f 55/1/5 51/1/5 54/1/5
f 56/3/5 54/3/5 49/3/5
f 57/3/5 54/3/5 56/3/5
f 58/1/5 53/1/5 52/1/5
f 59/1/5 53/1/5 58/1/5
f 63/1/5 61/1/5 60/1/5
f 64/1/5 63/1/5 62/1/5
f 65/1/5 61/1/5 63/1/5
f 65/1/5 63/1/5 64/1/5
f 66/2/6 67/2/6 69/2/6
f 67/1/6 68/1/6 70/1/6
f 69/2/6 67/2/6 70/2/6
f 69/3/6 70/3/6 71/3/6
f 70/1/6 68/1/6 72/1/6
f 71/3/6 70/3/6 72/3/6
f 72/1/6 68/1/6 73/1/6
