# MagicaVoxel @ Ephtracy

# group
o 

# material
mtllib me-1.mtl
usemtl palette

# normals
vn -1 0 0
vn 1 0 0
vn 0 0 1
vn 0 0 -1
vn 0 -1 0
vn 0 1 0

# texcoords
vt 0.0253906 0.5
vt 0.990234 0.5
vt 0.994141 0.5

# verts
v -9.3 2.6 -0.2
v -9.3 2.6 -0.4
v -9.3 2.9 -0.2
v -9.3 2.9 -0.4
v -9.1 2.6 -0.2
v -9.1 2.6 -0.3
v -9.1 2.7 -0.2
v -9.1 2.7 -0.3
v -9 2.6 -0.3
v -9 2.6 -0.4
v -9 2.7 -0.3
v -9 2.7 -0.4
v -9.2 2.6 -0.2
v -9.2 2.6 -0.4
v -9.2 2.7 -0.2
v -9.2 2.7 -0.4
v -8.1 2.6 -0.2
v -8.1 2.6 -0.4
v -8.1 2.8 -0.2
v -8.1 2.8 -0.3
v -8.1 2.9 -0.2
v -8.1 2.9 -0.3
v -8.1 2.9 -0.4
v -9.3 2.6 -0.2
v -9.3 2.9 -0.2
v -9.2 2.6 -0.2
v -9.2 2.7 -0.2
v -9.1 2.6 -0.2
v -9.1 2.7 -0.2
v -9 2.6 -0.2
v -9 2.8 -0.2
v -9 2.9 -0.2
v -8.1 2.6 -0.2
v -8.1 2.8 -0.2
v -8.1 2.9 -0.2
v -9.1 2.6 -0.3
v -9.1 2.7 -0.3
v -9 2.6 -0.3
v -9 2.7 -0.3
v -9.3 2.6 -0.4
v -9.3 2.9 -0.4
v -9.2 2.6 -0.4
v -9.2 2.7 -0.4
v -9 2.6 -0.4
v -9 2.7 -0.4
v -9 2.9 -0.4
v -8.1 2.6 -0.4
v -8.1 2.9 -0.4
v -9.3 2.6 -0.2
v -9.2 2.6 -0.2
v -9.1 2.6 -0.2
v -9 2.6 -0.2
v -8.1 2.6 -0.2
v -9.1 2.6 -0.3
v -9 2.6 -0.3
v -9.3 2.6 -0.4
v -9.2 2.6 -0.4
v -9 2.6 -0.4
v -8.1 2.6 -0.4
v -9.2 2.7 -0.2
v -9.1 2.7 -0.2
v -9.1 2.7 -0.3
v -9 2.7 -0.3
v -9.2 2.7 -0.4
v -9 2.7 -0.4
v -9.3 2.9 -0.2
v -9 2.9 -0.2
v -8.1 2.9 -0.2
v -9 2.9 -0.3
v -8.1 2.9 -0.3
v -9.3 2.9 -0.4
v -9 2.9 -0.4
v -8.1 2.9 -0.4

# faces
f 3/1/1 2/1/1 1/1/1
f 4/1/1 2/1/1 3/1/1
f 7/1/1 6/1/1 5/1/1
f 8/1/1 6/1/1 7/1/1
f 11/3/1 10/3/1 9/3/1
f 12/3/1 10/3/1 11/3/1
f 13/1/2 14/1/2 15/1/2
f 15/1/2 14/1/2 16/1/2
f 17/3/2 18/3/2 19/3/2
f 19/3/2 18/3/2 20/3/2
f 19/2/2 20/2/2 21/2/2
f 20/3/2 18/3/2 22/3/2
f 21/2/2 20/2/2 22/2/2
f 22/3/2 18/3/2 23/3/2
f 26/1/3 25/1/3 24/1/3
f 27/1/3 25/1/3 26/1/3
f 29/1/3 25/1/3 27/1/3
f 30/1/3 29/1/3 28/1/3
f 31/1/3 25/1/3 29/1/3
f 31/1/3 29/1/3 30/1/3
f 32/1/3 25/1/3 31/1/3
f 33/3/3 31/3/3 30/3/3
f 34/2/3 32/2/3 31/2/3
f 34/3/3 31/3/3 33/3/3
f 35/2/3 32/2/3 34/2/3
f 36/1/4 37/1/4 38/1/4
f 38/1/4 37/1/4 39/1/4
f 40/1/4 41/1/4 42/1/4
f 42/1/4 41/1/4 43/1/4
f 43/1/4 41/1/4 45/1/4
f 45/1/4 41/1/4 46/1/4
f 44/3/4 45/3/4 47/3/4
f 45/3/4 46/3/4 47/3/4
f 47/3/4 46/3/4 48/3/4
f 54/1/5 52/1/5 51/1/5
f 55/3/5 53/3/5 52/3/5
f 55/1/5 52/1/5 54/1/5
f 56/1/5 50/1/5 49/1/5
f 57/1/5 50/1/5 56/1/5
f 58/3/5 53/3/5 55/3/5
f 59/3/5 53/3/5 58/3/5
f 62/1/5 61/1/5 60/1/5
f 64/1/5 62/1/5 60/1/5
f 64/1/5 63/1/5 62/1/5
f 65/1/5 63/1/5 64/1/5
f 66/1/6 67/1/6 69/1/6
f 67/2/6 68/2/6 69/2/6
f 69/2/6 68/2/6 70/2/6
f 66/1/6 69/1/6 71/1/6
f 69/3/6 70/3/6 72/3/6
f 71/1/6 69/1/6 72/1/6
f 72/3/6 70/3/6 73/3/6
